# xmcd
#
# Track frame offsets:
#	150
#	15072
#	28975
#	44827
#	60460
#	78542
#	92035
#	105600
#	120652
#	132587
#
# Disc length: 2049 seconds
#
# Revision: 1
# Processed by: cddbd v1.4PL0 Copyright (c) Steve Scherf et al.
# Submitted via: CDmax 2.0
#
DISCID=8107ff0a
DTITLE=Variés - Les Grandes Chansons Du Country Pop (Vol 4)
DYEAR=1995
DGENRE=Country
TTITLE0=Ray Fontaine - L'hirondelle
TTITLE1=Pierre Charron - Mille après mille
TTITLE2=Robert Sawyer - Juliana
TTITLE3=Lynda Dénommée - Donne un sens à ta vie
TTITLE4=Lynda Dénommée - Ce soir
TTITLE5=Lynda Dénommée - Passe avec moi la nuit
TTITLE6=Colette Dénommée - Dans tes bras
TTITLE7=Sylvie Beauchemin - Papa pleure souvent
TTITLE8=Pierre Charron - Le train
TTITLE9=Ray Fontaine - 300 milles de distance
EXTD=
EXTT0=
EXTT1=
EXTT2=
EXTT3=
EXTT4=
EXTT5=
EXTT6=
EXTT7=
EXTT8=
EXTT9=
PLAYORDER=
